<svg xmlns="http://www.w3.org/2000/svg" version="1.1" width="300" height="300" viewBox="0 0 300 300"><rect x="0" y="0" width="300" height="300" fill="#ffffff"/><g transform="scale(5.66)"><g transform="translate(0,0)"><path fill-rule="evenodd" d="M10 0L10 1L8 1L8 2L10 2L10 4L11 4L11 6L10 6L10 7L11 7L11 9L12 9L12 7L13 7L13 8L14 8L14 7L15 7L15 6L14 6L14 7L13 7L13 6L12 6L12 4L13 4L13 5L14 5L14 3L15 3L15 2L16 2L16 3L17 3L17 4L19 4L19 5L20 5L20 8L21 8L21 9L18 9L18 8L17 8L17 6L18 6L18 7L19 7L19 6L18 6L18 5L17 5L17 6L16 6L16 8L17 8L17 9L18 9L18 10L20 10L20 11L19 11L19 12L17 12L17 13L19 13L19 14L18 14L18 15L16 15L16 14L15 14L15 13L16 13L16 11L15 11L15 13L13 13L13 12L14 12L14 11L13 11L13 10L14 10L14 9L13 9L13 10L6 10L6 9L9 9L9 8L6 8L6 9L5 9L5 8L0 8L0 9L3 9L3 10L2 10L2 11L1 11L1 10L0 10L0 13L1 13L1 14L3 14L3 12L2 12L2 11L3 11L3 10L4 10L4 9L5 9L5 10L6 10L6 11L4 11L4 13L5 13L5 12L6 12L6 13L7 13L7 14L6 14L6 15L5 15L5 16L6 16L6 17L7 17L7 16L6 16L6 15L8 15L8 13L10 13L10 12L8 12L8 11L11 11L11 14L12 14L12 15L11 15L11 16L10 16L10 15L9 15L9 16L8 16L8 18L6 18L6 19L10 19L10 20L9 20L9 24L6 24L6 23L8 23L8 21L7 21L7 20L5 20L5 19L4 19L4 18L5 18L5 17L4 17L4 16L3 16L3 17L2 17L2 19L4 19L4 20L5 20L5 21L3 21L3 20L2 20L2 21L1 21L1 22L0 22L0 25L1 25L1 27L0 27L0 33L1 33L1 27L2 27L2 29L3 29L3 30L2 30L2 32L4 32L4 35L3 35L3 34L2 34L2 36L4 36L4 38L2 38L2 37L0 37L0 39L1 39L1 38L2 38L2 40L5 40L5 41L1 41L1 40L0 40L0 41L1 41L1 42L0 42L0 43L1 43L1 44L3 44L3 45L4 45L4 44L3 44L3 43L7 43L7 44L6 44L6 45L8 45L8 47L9 47L9 46L10 46L10 48L8 48L8 53L10 53L10 52L9 52L9 51L10 51L10 49L11 49L11 51L12 51L12 53L14 53L14 52L13 52L13 51L12 51L12 49L13 49L13 48L15 48L15 49L16 49L16 50L15 50L15 51L16 51L16 52L15 52L15 53L21 53L21 52L17 52L17 51L20 51L20 50L19 50L19 49L20 49L20 47L21 47L21 48L22 48L22 49L21 49L21 51L23 51L23 53L25 53L25 52L27 52L27 50L26 50L26 49L29 49L29 50L32 50L32 52L30 52L30 53L32 53L32 52L33 52L33 53L37 53L37 51L35 51L35 50L38 50L38 49L39 49L39 50L40 50L40 49L39 49L39 48L36 48L36 47L34 47L34 46L32 46L32 44L31 44L31 43L32 43L32 39L33 39L33 41L35 41L35 42L33 42L33 43L35 43L35 42L36 42L36 43L38 43L38 44L34 44L34 45L37 45L37 46L38 46L38 47L40 47L40 46L41 46L41 47L42 47L42 48L41 48L41 51L40 51L40 52L39 52L39 51L38 51L38 53L40 53L40 52L41 52L41 53L43 53L43 52L41 52L41 51L44 51L44 53L47 53L47 52L45 52L45 51L44 51L44 50L46 50L46 49L48 49L48 50L47 50L47 51L49 51L49 52L50 52L50 51L51 51L51 52L52 52L52 51L53 51L53 50L52 50L52 49L53 49L53 47L51 47L51 48L50 48L50 46L53 46L53 44L52 44L52 43L51 43L51 42L53 42L53 40L51 40L51 41L50 41L50 43L48 43L48 42L49 42L49 40L50 40L50 39L51 39L51 38L50 38L50 37L51 37L51 36L50 36L50 35L51 35L51 33L52 33L52 34L53 34L53 32L49 32L49 33L48 33L48 32L45 32L45 31L44 31L44 34L43 34L43 33L42 33L42 34L40 34L40 33L39 33L39 35L40 35L40 36L42 36L42 34L43 34L43 36L45 36L45 39L44 39L44 37L41 37L41 38L39 38L39 40L40 40L40 39L41 39L41 40L42 40L42 41L39 41L39 43L38 43L38 41L37 41L37 39L38 39L38 32L41 32L41 30L42 30L42 32L43 32L43 30L44 30L44 29L47 29L47 30L48 30L48 31L50 31L50 30L51 30L51 31L52 31L52 30L53 30L53 28L51 28L51 29L50 29L50 26L52 26L52 24L53 24L53 23L51 23L51 25L49 25L49 24L50 24L50 22L51 22L51 21L53 21L53 19L51 19L51 16L50 16L50 15L49 15L49 16L48 16L48 14L47 14L47 16L46 16L46 15L45 15L45 14L44 14L44 12L45 12L45 13L47 13L47 12L48 12L48 13L49 13L49 14L50 14L50 13L49 13L49 12L50 12L50 11L51 11L51 13L52 13L52 14L53 14L53 13L52 13L52 11L51 11L51 10L53 10L53 9L52 9L52 8L51 8L51 10L50 10L50 8L49 8L49 9L48 9L48 8L47 8L47 10L48 10L48 11L47 11L47 12L46 12L46 10L45 10L45 11L43 11L43 10L44 10L44 9L46 9L46 8L44 8L44 7L45 7L45 6L44 6L44 7L43 7L43 3L44 3L44 4L45 4L45 3L44 3L44 1L43 1L43 0L42 0L42 1L41 1L41 2L40 2L40 0L39 0L39 2L38 2L38 0L37 0L37 1L36 1L36 3L35 3L35 2L34 2L34 1L31 1L31 0L26 0L26 1L25 1L25 0L24 0L24 1L25 1L25 3L26 3L26 4L21 4L21 5L20 5L20 4L19 4L19 2L20 2L20 1L19 1L19 0L16 0L16 1L15 1L15 2L14 2L14 1L13 1L13 3L12 3L12 4L11 4L11 2L10 2L10 1L11 1L11 0ZM22 0L22 1L21 1L21 3L23 3L23 0ZM17 1L17 2L19 2L19 1ZM26 1L26 3L27 3L27 4L31 4L31 7L30 7L30 6L29 6L29 9L28 9L28 10L27 10L27 11L26 11L26 9L25 9L25 11L26 11L26 12L25 12L25 13L23 13L23 11L24 11L24 9L23 9L23 8L24 8L24 5L23 5L23 7L22 7L22 6L21 6L21 8L22 8L22 10L21 10L21 11L22 11L22 12L21 12L21 13L20 13L20 12L19 12L19 13L20 13L20 14L19 14L19 15L20 15L20 17L19 17L19 18L18 18L18 20L19 20L19 21L15 21L15 20L16 20L16 19L15 19L15 18L16 18L16 17L18 17L18 16L16 16L16 15L15 15L15 16L16 16L16 17L13 17L13 16L14 16L14 15L13 15L13 16L11 16L11 17L10 17L10 18L11 18L11 17L12 17L12 19L13 19L13 20L12 20L12 21L13 21L13 20L14 20L14 22L12 22L12 23L10 23L10 24L12 24L12 26L13 26L13 27L12 27L12 28L10 28L10 27L11 27L11 26L10 26L10 27L9 27L9 29L12 29L12 30L10 30L10 31L11 31L11 32L10 32L10 33L9 33L9 34L8 34L8 32L7 32L7 31L6 31L6 30L7 30L7 29L5 29L5 30L3 30L3 31L5 31L5 32L7 32L7 33L5 33L5 34L7 34L7 35L5 35L5 36L7 36L7 37L6 37L6 38L7 38L7 37L8 37L8 38L10 38L10 39L11 39L11 41L12 41L12 43L11 43L11 44L12 44L12 45L13 45L13 46L14 46L14 47L15 47L15 48L16 48L16 49L18 49L18 48L16 48L16 47L18 47L18 45L17 45L17 42L18 42L18 41L21 41L21 42L23 42L23 43L21 43L21 45L20 45L20 44L19 44L19 43L20 43L20 42L19 42L19 43L18 43L18 44L19 44L19 45L20 45L20 46L21 46L21 47L22 47L22 46L21 46L21 45L23 45L23 47L24 47L24 45L23 45L23 43L24 43L24 42L23 42L23 40L24 40L24 41L25 41L25 44L26 44L26 41L30 41L30 38L29 38L29 37L30 37L30 36L29 36L29 35L28 35L28 34L29 34L29 33L31 33L31 31L32 31L32 35L33 35L33 34L35 34L35 36L31 36L31 38L32 38L32 37L33 37L33 39L35 39L35 40L36 40L36 39L37 39L37 37L35 37L35 36L36 36L36 35L37 35L37 34L35 34L35 32L38 32L38 31L37 31L37 30L39 30L39 29L40 29L40 30L41 30L41 27L42 27L42 28L44 28L44 27L42 27L42 26L40 26L40 25L43 25L43 26L44 26L44 24L43 24L43 22L41 22L41 23L40 23L40 22L39 22L39 21L38 21L38 18L39 18L39 20L40 20L40 21L41 21L41 20L40 20L40 19L41 19L41 18L40 18L40 17L42 17L42 16L39 16L39 17L38 17L38 16L37 16L37 15L38 15L38 14L39 14L39 13L41 13L41 12L42 12L42 13L43 13L43 12L42 12L42 11L40 11L40 10L41 10L41 8L42 8L42 6L41 6L41 8L40 8L40 6L39 6L39 4L42 4L42 3L43 3L43 2L41 2L41 3L37 3L37 4L38 4L38 6L37 6L37 5L35 5L35 3L34 3L34 2L33 2L33 3L32 3L32 2L30 2L30 1ZM27 2L27 3L28 3L28 2ZM8 3L8 4L9 4L9 3ZM31 3L31 4L32 4L32 8L31 8L31 9L29 9L29 11L28 11L28 12L27 12L27 13L25 13L25 14L23 14L23 13L22 13L22 15L21 15L21 14L20 14L20 15L21 15L21 16L22 16L22 17L21 17L21 21L22 21L22 22L20 22L20 21L19 21L19 24L20 24L20 23L22 23L22 22L23 22L23 23L24 23L24 24L23 24L23 25L24 25L24 26L23 26L23 27L24 27L24 29L26 29L26 30L27 30L27 31L28 31L28 30L30 30L30 31L29 31L29 32L28 32L28 33L26 33L26 32L25 32L25 33L26 33L26 35L27 35L27 34L28 34L28 33L29 33L29 32L30 32L30 31L31 31L31 29L32 29L32 30L33 30L33 29L34 29L34 28L35 28L35 31L33 31L33 32L35 32L35 31L36 31L36 30L37 30L37 29L38 29L38 28L37 28L37 27L39 27L39 28L40 28L40 26L37 26L37 27L36 27L36 26L35 26L35 27L34 27L34 26L32 26L32 24L33 24L33 25L34 25L34 24L35 24L35 25L39 25L39 24L40 24L40 23L39 23L39 24L37 24L37 22L38 22L38 21L37 21L37 19L36 19L36 20L35 20L35 18L33 18L33 17L37 17L37 18L38 18L38 17L37 17L37 16L33 16L33 17L32 17L32 15L30 15L30 14L31 14L31 13L32 13L32 11L31 11L31 9L32 9L32 10L33 10L33 9L34 9L34 8L35 8L35 9L36 9L36 10L38 10L38 13L37 13L37 12L35 12L35 13L37 13L37 14L33 14L33 15L37 15L37 14L38 14L38 13L39 13L39 12L40 12L40 11L39 11L39 10L40 10L40 8L39 8L39 6L38 6L38 9L37 9L37 8L35 8L35 6L34 6L34 7L33 7L33 4L32 4L32 3ZM8 5L8 7L9 7L9 5ZM25 5L25 8L28 8L28 5ZM11 6L11 7L12 7L12 6ZM26 6L26 7L27 7L27 6ZM36 6L36 7L37 7L37 6ZM32 8L32 9L33 9L33 8ZM43 8L43 9L44 9L44 8ZM15 9L15 10L16 10L16 9ZM38 9L38 10L39 10L39 9ZM6 11L6 12L7 12L7 11ZM12 11L12 12L13 12L13 11ZM48 11L48 12L49 12L49 11ZM1 12L1 13L2 13L2 12ZM28 12L28 13L27 13L27 15L26 15L26 14L25 14L25 15L26 15L26 17L25 17L25 16L23 16L23 17L22 17L22 18L23 18L23 19L26 19L26 21L23 21L23 20L22 20L22 21L23 21L23 22L24 22L24 23L26 23L26 24L27 24L27 23L28 23L28 24L29 24L29 25L31 25L31 24L30 24L30 22L29 22L29 21L27 21L27 20L31 20L31 21L32 21L32 23L33 23L33 24L34 24L34 23L33 23L33 22L36 22L36 21L35 21L35 20L34 20L34 21L33 21L33 20L31 20L31 19L29 19L29 18L28 18L28 17L31 17L31 18L32 18L32 19L33 19L33 18L32 18L32 17L31 17L31 16L30 16L30 15L29 15L29 12ZM33 12L33 13L34 13L34 12ZM40 14L40 15L42 15L42 14ZM43 14L43 17L44 17L44 20L45 20L45 21L44 21L44 23L46 23L46 22L47 22L47 24L48 24L48 22L47 22L47 20L48 20L48 19L50 19L50 20L49 20L49 22L50 22L50 20L51 20L51 19L50 19L50 18L48 18L48 19L45 19L45 18L47 18L47 17L48 17L48 16L47 16L47 17L44 17L44 14ZM0 15L0 17L1 17L1 16L2 16L2 15ZM27 16L27 17L26 17L26 19L27 19L27 17L28 17L28 16ZM49 16L49 17L50 17L50 16ZM24 17L24 18L25 18L25 17ZM52 17L52 18L53 18L53 17ZM19 18L19 19L20 19L20 18ZM42 18L42 20L43 20L43 18ZM14 19L14 20L15 20L15 19ZM2 21L2 22L1 22L1 23L3 23L3 24L2 24L2 25L3 25L3 29L4 29L4 25L3 25L3 24L4 24L4 23L3 23L3 21ZM5 21L5 22L7 22L7 21ZM10 21L10 22L11 22L11 21ZM15 22L15 23L16 23L16 24L17 24L17 25L18 25L18 26L20 26L20 27L17 27L17 30L15 30L15 29L16 29L16 27L15 27L15 26L16 26L16 25L15 25L15 26L14 26L14 25L13 25L13 26L14 26L14 27L13 27L13 28L14 28L14 27L15 27L15 29L13 29L13 30L12 30L12 31L14 31L14 32L13 32L13 33L16 33L16 34L15 34L15 35L14 35L14 36L11 36L11 38L12 38L12 39L13 39L13 40L12 40L12 41L13 41L13 43L12 43L12 44L13 44L13 45L14 45L14 43L15 43L15 45L16 45L16 43L15 43L15 42L16 42L16 41L15 41L15 42L14 42L14 41L13 41L13 40L14 40L14 39L13 39L13 38L14 38L14 36L15 36L15 37L17 37L17 38L15 38L15 39L16 39L16 40L17 40L17 41L18 41L18 40L17 40L17 39L18 39L18 38L19 38L19 39L20 39L20 40L21 40L21 41L22 41L22 40L21 40L21 39L22 39L22 37L21 37L21 36L20 36L20 37L19 37L19 36L17 36L17 34L19 34L19 35L20 35L20 34L19 34L19 33L20 33L20 32L19 32L19 30L20 30L20 31L21 31L21 32L22 32L22 33L21 33L21 35L23 35L23 34L22 34L22 33L23 33L23 32L24 32L24 31L25 31L25 30L24 30L24 31L23 31L23 29L22 29L22 26L21 26L21 25L22 25L22 24L21 24L21 25L18 25L18 24L17 24L17 23L18 23L18 22ZM26 22L26 23L27 23L27 22ZM13 23L13 24L14 24L14 23ZM5 25L5 28L8 28L8 25ZM25 25L25 28L28 28L28 25ZM45 25L45 28L48 28L48 25ZM6 26L6 27L7 27L7 26ZM26 26L26 27L27 27L27 26ZM29 26L29 27L30 27L30 29L31 29L31 28L32 28L32 29L33 29L33 27L32 27L32 26ZM46 26L46 27L47 27L47 26ZM35 27L35 28L36 28L36 27ZM20 28L20 30L21 30L21 31L22 31L22 29L21 29L21 28ZM49 29L49 30L50 30L50 29ZM51 29L51 30L52 30L52 29ZM17 30L17 31L18 31L18 30ZM11 32L11 33L10 33L10 35L13 35L13 34L11 34L11 33L12 33L12 32ZM16 32L16 33L18 33L18 32ZM47 33L47 34L44 34L44 35L46 35L46 37L47 37L47 36L48 36L48 37L50 37L50 36L49 36L49 35L50 35L50 33L49 33L49 35L47 35L47 34L48 34L48 33ZM30 34L30 35L31 35L31 34ZM15 35L15 36L16 36L16 35ZM8 36L8 37L9 37L9 36ZM25 36L25 37L23 37L23 38L26 38L26 36ZM28 36L28 37L29 37L29 36ZM20 37L20 39L21 39L21 37ZM4 38L4 39L5 39L5 38ZM41 38L41 39L43 39L43 38ZM46 38L46 39L45 39L45 40L43 40L43 42L40 42L40 44L38 44L38 46L39 46L39 45L42 45L42 44L43 44L43 47L44 47L44 44L43 44L43 42L45 42L45 43L47 43L47 42L45 42L45 41L46 41L46 39L47 39L47 41L48 41L48 39L47 39L47 38ZM49 38L49 39L50 39L50 38ZM6 39L6 40L7 40L7 39ZM8 39L8 40L9 40L9 39ZM24 39L24 40L25 40L25 41L26 41L26 39ZM5 41L5 42L7 42L7 43L9 43L9 44L8 44L8 45L10 45L10 42L9 42L9 41ZM36 41L36 42L37 42L37 41ZM2 42L2 43L3 43L3 42ZM27 42L27 44L29 44L29 45L31 45L31 44L30 44L30 43L31 43L31 42ZM50 43L50 44L49 44L49 46L50 46L50 45L51 45L51 43ZM25 45L25 48L28 48L28 45ZM45 45L45 48L48 48L48 45ZM11 46L11 49L12 49L12 46ZM15 46L15 47L16 47L16 46ZM26 46L26 47L27 47L27 46ZM29 46L29 47L30 47L30 48L29 48L29 49L31 49L31 48L32 48L32 50L35 50L35 49L34 49L34 47L33 47L33 48L32 48L32 47L31 47L31 46ZM46 46L46 47L47 47L47 46ZM23 48L23 49L22 49L22 50L23 50L23 51L25 51L25 50L23 50L23 49L24 49L24 48ZM42 48L42 49L43 49L43 50L44 50L44 48ZM49 48L49 49L50 49L50 48ZM49 50L49 51L50 51L50 50ZM51 50L51 51L52 51L52 50ZM33 51L33 52L35 52L35 51ZM0 0L0 7L7 7L7 0ZM1 1L1 6L6 6L6 1ZM2 2L2 5L5 5L5 2ZM46 0L46 7L53 7L53 0ZM47 1L47 6L52 6L52 1ZM48 2L48 5L51 5L51 2ZM0 46L0 53L7 53L7 46ZM1 47L1 52L6 52L6 47ZM2 48L2 51L5 51L5 48Z" fill="#000000"/></g></g></svg>