<svg xmlns="http://www.w3.org/2000/svg" version="1.1" width="300" height="300" viewBox="0 0 300 300"><rect x="0" y="0" width="300" height="300" fill="#ffffff"/><g transform="scale(5.66)"><g transform="translate(0,0)"><path fill-rule="evenodd" d="M9 0L9 1L8 1L8 2L9 2L9 3L8 3L8 4L10 4L10 5L8 5L8 7L9 7L9 6L10 6L10 7L11 7L11 6L12 6L12 9L11 9L11 8L10 8L10 9L9 9L9 8L6 8L6 9L5 9L5 8L0 8L0 9L1 9L1 11L0 11L0 13L1 13L1 15L0 15L0 17L1 17L1 18L0 18L0 20L2 20L2 19L1 19L1 18L3 18L3 21L1 21L1 22L2 22L2 23L1 23L1 24L0 24L0 27L2 27L2 28L1 28L1 30L2 30L2 28L3 28L3 30L4 30L4 31L2 31L2 32L0 32L0 33L3 33L3 34L1 34L1 36L2 36L2 35L3 35L3 36L4 36L4 37L7 37L7 36L8 36L8 35L7 35L7 34L8 34L8 32L6 32L6 33L5 33L5 32L4 32L4 31L12 31L12 33L11 33L11 32L9 32L9 35L10 35L10 36L11 36L11 38L9 38L9 39L8 39L8 38L6 38L6 39L5 39L5 38L3 38L3 37L1 37L1 38L0 38L0 40L3 40L3 41L2 41L2 42L1 42L1 41L0 41L0 43L1 43L1 44L3 44L3 45L4 45L4 44L3 44L3 43L7 43L7 44L6 44L6 45L8 45L8 47L10 47L10 49L9 49L9 48L8 48L8 53L11 53L11 52L10 52L10 51L13 51L13 50L14 50L14 52L13 52L13 53L14 53L14 52L15 52L15 53L21 53L21 52L17 52L17 51L20 51L20 50L19 50L19 49L20 49L20 47L21 47L21 48L22 48L22 49L21 49L21 51L23 51L23 50L25 50L25 51L26 51L26 53L27 53L27 50L28 50L28 49L29 49L29 51L31 51L31 50L32 50L32 52L30 52L30 53L32 53L32 52L33 52L33 53L37 53L37 52L38 52L38 51L36 51L36 52L35 52L35 50L38 50L38 49L39 49L39 48L41 48L41 49L40 49L40 50L39 50L39 52L41 52L41 53L44 53L44 52L45 52L45 51L44 51L44 50L43 50L43 49L47 49L47 50L46 50L46 51L47 51L47 52L46 52L46 53L48 53L48 52L50 52L50 53L51 53L51 52L52 52L52 51L53 51L53 50L52 50L52 49L53 49L53 48L50 48L50 46L51 46L51 45L52 45L52 46L53 46L53 44L52 44L52 43L51 43L51 45L50 45L50 46L49 46L49 44L50 44L50 43L49 43L49 44L45 44L45 43L44 43L44 42L43 42L43 40L44 40L44 41L45 41L45 40L44 40L44 39L45 39L45 38L43 38L43 37L42 37L42 36L43 36L43 34L44 34L44 37L46 37L46 38L47 38L47 39L48 39L48 40L46 40L46 42L49 42L49 40L50 40L50 39L51 39L51 38L50 38L50 37L51 37L51 36L50 36L50 35L51 35L51 34L50 34L50 33L52 33L52 34L53 34L53 32L49 32L49 31L50 31L50 30L51 30L51 29L53 29L53 28L51 28L51 29L50 29L50 27L51 27L51 26L52 26L52 25L51 25L51 26L50 26L50 25L49 25L49 24L50 24L50 22L52 22L52 21L53 21L53 19L51 19L51 21L50 21L50 18L51 18L51 16L53 16L53 15L51 15L51 16L50 16L50 15L49 15L49 16L46 16L46 15L45 15L45 16L44 16L44 15L43 15L43 14L44 14L44 12L45 12L45 11L46 11L46 12L47 12L47 14L50 14L50 13L49 13L49 12L50 12L50 11L49 11L49 12L47 12L47 10L44 10L44 9L46 9L46 8L44 8L44 7L45 7L45 6L44 6L44 7L43 7L43 3L44 3L44 4L45 4L45 3L44 3L44 1L43 1L43 0L41 0L41 1L42 1L42 2L43 2L43 3L41 3L41 2L40 2L40 3L39 3L39 4L40 4L40 5L42 5L42 8L43 8L43 9L41 9L41 10L40 10L40 9L39 9L39 6L38 6L38 7L37 7L37 6L36 6L36 7L37 7L37 8L35 8L35 5L34 5L34 4L36 4L36 5L38 5L38 4L37 4L37 3L38 3L38 2L37 2L37 1L38 1L38 0L37 0L37 1L36 1L36 3L35 3L35 2L34 2L34 1L33 1L33 2L32 2L32 1L31 1L31 0L26 0L26 1L25 1L25 0L24 0L24 1L25 1L25 3L23 3L23 5L20 5L20 4L19 4L19 2L20 2L20 1L19 1L19 0L16 0L16 1L15 1L15 2L14 2L14 1L13 1L13 4L12 4L12 3L11 3L11 2L12 2L12 0L11 0L11 1L10 1L10 0ZM22 0L22 1L21 1L21 2L22 2L22 1L23 1L23 0ZM17 1L17 2L19 2L19 1ZM26 1L26 3L25 3L25 4L26 4L26 3L27 3L27 4L28 4L28 3L27 3L27 2L30 2L30 3L32 3L32 4L31 4L31 5L32 5L32 4L33 4L33 3L34 3L34 2L33 2L33 3L32 3L32 2L30 2L30 1ZM15 2L15 3L14 3L14 5L13 5L13 7L14 7L14 8L13 8L13 9L14 9L14 10L13 10L13 11L14 11L14 12L13 12L13 13L12 13L12 14L11 14L11 13L10 13L10 11L11 11L11 10L8 10L8 11L9 11L9 14L7 14L7 13L6 13L6 12L7 12L7 11L5 11L5 9L4 9L4 11L2 11L2 12L3 12L3 13L2 13L2 14L3 14L3 13L4 13L4 14L5 14L5 15L4 15L4 16L5 16L5 17L4 17L4 18L10 18L10 17L11 17L11 18L13 18L13 19L14 19L14 22L13 22L13 21L12 21L12 20L11 20L11 22L10 22L10 21L9 21L9 22L8 22L8 20L7 20L7 19L5 19L5 20L4 20L4 21L5 21L5 22L7 22L7 23L4 23L4 24L3 24L3 23L2 23L2 24L1 24L1 25L2 25L2 26L4 26L4 24L8 24L8 23L9 23L9 22L10 22L10 24L9 24L9 26L10 26L10 24L11 24L11 25L12 25L12 26L11 26L11 28L9 28L9 30L12 30L12 31L13 31L13 32L14 32L14 31L13 31L13 30L12 30L12 29L15 29L15 30L17 30L17 31L18 31L18 30L17 30L17 27L20 27L20 26L18 26L18 25L21 25L21 26L22 26L22 29L21 29L21 28L20 28L20 30L19 30L19 32L20 32L20 33L19 33L19 34L17 34L17 35L19 35L19 37L20 37L20 39L19 39L19 38L18 38L18 39L17 39L17 40L15 40L15 38L17 38L17 37L15 37L15 36L16 36L16 35L15 35L15 34L16 34L16 33L18 33L18 32L16 32L16 33L12 33L12 34L13 34L13 35L12 35L12 37L13 37L13 38L12 38L12 39L11 39L11 42L9 42L9 41L10 41L10 40L9 40L9 41L6 41L6 40L7 40L7 39L6 39L6 40L5 40L5 39L3 39L3 40L4 40L4 42L7 42L7 43L8 43L8 45L9 45L9 46L12 46L12 45L13 45L13 48L12 48L12 47L11 47L11 49L10 49L10 50L11 50L11 49L13 49L13 48L14 48L14 49L15 49L15 50L16 50L16 49L18 49L18 48L16 48L16 49L15 49L15 48L14 48L14 47L15 47L15 46L17 46L17 47L18 47L18 45L17 45L17 42L18 42L18 41L21 41L21 42L23 42L23 43L21 43L21 45L20 45L20 44L19 44L19 43L20 43L20 42L19 42L19 43L18 43L18 44L19 44L19 45L20 45L20 46L21 46L21 47L22 47L22 46L21 46L21 45L23 45L23 47L24 47L24 45L23 45L23 44L26 44L26 41L27 41L27 40L31 40L31 38L32 38L32 37L33 37L33 39L32 39L32 41L31 41L31 42L30 42L30 41L29 41L29 42L28 42L28 43L27 43L27 44L30 44L30 45L31 45L31 44L32 44L32 46L30 46L30 47L29 47L29 48L30 48L30 47L31 47L31 48L32 48L32 50L35 50L35 49L34 49L34 47L36 47L36 48L39 48L39 47L40 47L40 46L41 46L41 48L42 48L42 49L41 49L41 50L40 50L40 51L41 51L41 50L42 50L42 52L43 52L43 50L42 50L42 49L43 49L43 48L44 48L44 44L42 44L42 43L41 43L41 42L40 42L40 41L41 41L41 40L43 40L43 38L42 38L42 37L41 37L41 36L40 36L40 35L41 35L41 33L42 33L42 31L43 31L43 33L44 33L44 34L45 34L45 35L46 35L46 37L47 37L47 38L48 38L48 37L50 37L50 36L48 36L48 37L47 37L47 34L48 34L48 33L49 33L49 32L48 32L48 33L47 33L47 32L46 32L46 33L44 33L44 31L47 31L47 29L44 29L44 30L41 30L41 29L42 29L42 28L41 28L41 25L44 25L44 24L39 24L39 21L44 21L44 22L43 22L43 23L44 23L44 22L45 22L45 24L49 24L49 23L46 23L46 22L47 22L47 19L46 19L46 18L48 18L48 17L46 17L46 16L45 16L45 17L44 17L44 16L42 16L42 17L44 17L44 18L43 18L43 19L42 19L42 18L41 18L41 16L39 16L39 15L42 15L42 14L41 14L41 12L42 12L42 13L43 13L43 12L44 12L44 11L41 11L41 12L39 12L39 13L38 13L38 14L37 14L37 15L36 15L36 14L35 14L35 13L33 13L33 11L34 11L34 12L35 12L35 11L36 11L36 12L37 12L37 11L40 11L40 10L39 10L39 9L38 9L38 8L37 8L37 9L38 9L38 10L36 10L36 9L35 9L35 8L34 8L34 9L33 9L33 7L34 7L34 5L33 5L33 7L32 7L32 6L31 6L31 8L29 8L29 9L28 9L28 10L27 10L27 11L26 11L26 9L24 9L24 5L23 5L23 7L22 7L22 6L21 6L21 8L20 8L20 5L19 5L19 4L17 4L17 3L16 3L16 2ZM10 3L10 4L11 4L11 3ZM15 3L15 4L16 4L16 3ZM40 3L40 4L41 4L41 3ZM16 5L16 8L17 8L17 9L18 9L18 10L20 10L20 11L19 11L19 12L17 12L17 13L19 13L19 14L18 14L18 15L17 15L17 16L18 16L18 17L16 17L16 16L15 16L15 13L16 13L16 11L15 11L15 10L16 10L16 9L15 9L15 10L14 10L14 11L15 11L15 13L13 13L13 15L11 15L11 16L13 16L13 17L16 17L16 18L15 18L15 19L16 19L16 21L15 21L15 22L16 22L16 21L19 21L19 24L20 24L20 23L22 23L22 22L23 22L23 23L24 23L24 24L23 24L23 25L24 25L24 29L26 29L26 31L25 31L25 30L24 30L24 31L23 31L23 29L22 29L22 31L21 31L21 30L20 30L20 31L21 31L21 32L22 32L22 33L21 33L21 35L23 35L23 34L24 34L24 33L25 33L25 34L26 34L26 35L27 35L27 34L28 34L28 33L30 33L30 34L29 34L29 35L30 35L30 34L31 34L31 35L32 35L32 34L31 34L31 33L32 33L32 32L30 32L30 30L31 30L31 31L32 31L32 30L31 30L31 29L32 29L32 28L33 28L33 29L34 29L34 26L33 26L33 27L32 27L32 28L30 28L30 27L29 27L29 26L32 26L32 25L29 25L29 24L26 24L26 23L28 23L28 22L30 22L30 23L31 23L31 24L33 24L33 25L34 25L34 24L35 24L35 25L39 25L39 24L37 24L37 23L38 23L38 21L37 21L37 20L38 20L38 19L39 19L39 20L40 20L40 19L41 19L41 20L42 20L42 19L41 19L41 18L40 18L40 19L39 19L39 18L38 18L38 17L39 17L39 16L38 16L38 15L37 15L37 16L33 16L33 17L37 17L37 18L38 18L38 19L35 19L35 18L33 18L33 19L31 19L31 18L32 18L32 15L30 15L30 14L31 14L31 13L32 13L32 12L29 12L29 11L30 11L30 10L31 10L31 11L32 11L32 10L31 10L31 9L32 9L32 8L31 8L31 9L29 9L29 11L28 11L28 12L26 12L26 11L25 11L25 10L24 10L24 11L23 11L23 13L25 13L25 14L26 14L26 15L24 15L24 14L22 14L22 15L21 15L21 14L20 14L20 13L21 13L21 10L22 10L22 8L21 8L21 9L18 9L18 8L17 8L17 6L18 6L18 7L19 7L19 6L18 6L18 5ZM25 5L25 8L28 8L28 5ZM14 6L14 7L15 7L15 6ZM26 6L26 7L27 7L27 6ZM29 6L29 7L30 7L30 6ZM40 6L40 8L41 8L41 6ZM47 8L47 9L48 9L48 8ZM49 8L49 10L53 10L53 9L52 9L52 8L51 8L51 9L50 9L50 8ZM6 9L6 10L7 10L7 9ZM51 11L51 14L53 14L53 13L52 13L52 11ZM19 12L19 13L20 13L20 12ZM25 12L25 13L26 13L26 12ZM28 12L28 14L27 14L27 15L26 15L26 17L25 17L25 16L23 16L23 17L22 17L22 16L21 16L21 15L20 15L20 14L19 14L19 15L20 15L20 17L19 17L19 18L18 18L18 20L19 20L19 21L20 21L20 22L22 22L22 21L23 21L23 22L24 22L24 23L26 23L26 22L28 22L28 21L27 21L27 20L29 20L29 21L34 21L34 22L33 22L33 24L34 24L34 22L35 22L35 19L33 19L33 20L30 20L30 19L29 19L29 18L28 18L28 17L29 17L29 14L30 14L30 13L29 13L29 12ZM5 13L5 14L6 14L6 15L5 15L5 16L6 16L6 17L8 17L8 16L10 16L10 14L9 14L9 15L7 15L7 14L6 14L6 13ZM39 13L39 14L40 14L40 13ZM1 15L1 17L2 17L2 16L3 16L3 15ZM6 15L6 16L7 16L7 15ZM13 15L13 16L14 16L14 15ZM27 16L27 17L26 17L26 18L27 18L27 17L28 17L28 16ZM30 16L30 17L31 17L31 16ZM49 16L49 17L50 17L50 16ZM21 17L21 18L22 18L22 17ZM24 17L24 18L25 18L25 17ZM45 17L45 18L46 18L46 17ZM52 17L52 18L53 18L53 17ZM19 18L19 19L20 19L20 18ZM9 19L9 20L10 20L10 19ZM21 19L21 21L22 21L22 19ZM23 19L23 21L25 21L25 20L26 20L26 19ZM43 19L43 20L45 20L45 19ZM6 20L6 21L7 21L7 20ZM45 21L45 22L46 22L46 21ZM49 21L49 22L50 22L50 21ZM11 22L11 24L12 24L12 25L13 25L13 26L12 26L12 28L14 28L14 27L15 27L15 28L16 28L16 27L15 27L15 26L16 26L16 25L15 25L15 26L14 26L14 25L13 25L13 24L14 24L14 23L13 23L13 22ZM17 22L17 23L18 23L18 22ZM31 22L31 23L32 23L32 22ZM36 22L36 23L37 23L37 22ZM41 22L41 23L42 23L42 22ZM12 23L12 24L13 24L13 23ZM52 23L52 24L53 24L53 23ZM2 24L2 25L3 25L3 24ZM17 24L17 25L18 25L18 24ZM21 24L21 25L22 25L22 24ZM5 25L5 28L8 28L8 25ZM25 25L25 28L28 28L28 25ZM45 25L45 28L48 28L48 25ZM6 26L6 27L7 27L7 26ZM13 26L13 27L14 27L14 26ZM26 26L26 27L27 27L27 26ZM35 26L35 27L36 27L36 26ZM37 26L37 27L39 27L39 26ZM42 26L42 27L43 27L43 28L44 28L44 27L43 27L43 26ZM46 26L46 27L47 27L47 26ZM3 27L3 28L4 28L4 27ZM35 28L35 30L37 30L37 31L38 31L38 32L35 32L35 31L33 31L33 32L35 32L35 34L33 34L33 36L35 36L35 37L37 37L37 38L36 38L36 40L35 40L35 39L33 39L33 41L32 41L32 42L33 42L33 43L35 43L35 44L34 44L34 45L35 45L35 46L38 46L38 45L39 45L39 44L40 44L40 43L38 43L38 41L37 41L37 39L38 39L38 32L41 32L41 31L39 31L39 30L37 30L37 29L38 29L38 28ZM6 29L6 30L7 30L7 29ZM27 29L27 30L28 30L28 31L26 31L26 34L27 34L27 33L28 33L28 32L29 32L29 29ZM49 29L49 30L50 30L50 29ZM24 31L24 32L23 32L23 33L22 33L22 34L23 34L23 33L24 33L24 32L25 32L25 31ZM3 32L3 33L4 33L4 35L5 35L5 36L7 36L7 35L5 35L5 33L4 33L4 32ZM6 33L6 34L7 34L7 33ZM10 33L10 35L11 35L11 33ZM19 34L19 35L20 35L20 34ZM35 34L35 35L37 35L37 34ZM39 34L39 35L40 35L40 34ZM49 34L49 35L50 35L50 34ZM14 35L14 36L13 36L13 37L14 37L14 36L15 36L15 35ZM24 35L24 36L25 36L25 37L23 37L23 38L26 38L26 36L25 36L25 35ZM20 36L20 37L21 37L21 39L20 39L20 40L21 40L21 41L22 41L22 40L21 40L21 39L22 39L22 37L21 37L21 36ZM28 36L28 37L29 37L29 38L31 38L31 37L32 37L32 36L31 36L31 37L29 37L29 36ZM39 36L39 37L40 37L40 36ZM27 38L27 39L24 39L24 40L23 40L23 42L24 42L24 43L25 43L25 42L24 42L24 41L26 41L26 40L27 40L27 39L28 39L28 38ZM39 38L39 39L40 39L40 40L39 40L39 41L40 41L40 40L41 40L41 39L42 39L42 38ZM49 38L49 39L50 39L50 38ZM13 39L13 40L12 40L12 43L11 43L11 44L10 44L10 45L12 45L12 43L13 43L13 42L14 42L14 43L15 43L15 44L14 44L14 46L15 46L15 44L16 44L16 43L15 43L15 42L16 42L16 41L15 41L15 42L14 42L14 41L13 41L13 40L14 40L14 39ZM52 39L52 40L53 40L53 39ZM17 40L17 41L18 41L18 40ZM33 41L33 42L35 42L35 43L36 43L36 44L35 44L35 45L36 45L36 44L37 44L37 45L38 45L38 43L36 43L36 42L37 42L37 41L36 41L36 42L35 42L35 41ZM50 41L50 42L53 42L53 41ZM2 42L2 43L3 43L3 42ZM29 42L29 43L30 43L30 42ZM25 45L25 48L28 48L28 45ZM41 45L41 46L42 46L42 48L43 48L43 45ZM45 45L45 48L48 48L48 45ZM26 46L26 47L27 47L27 46ZM32 46L32 48L33 48L33 47L34 47L34 46ZM46 46L46 47L47 47L47 46ZM23 48L23 49L22 49L22 50L23 50L23 49L24 49L24 48ZM49 48L49 49L48 49L48 50L47 50L47 51L48 51L48 50L49 50L49 49L50 49L50 48ZM26 49L26 50L27 50L27 49ZM50 50L50 52L51 52L51 51L52 51L52 50ZM15 51L15 52L16 52L16 51ZM23 52L23 53L25 53L25 52ZM0 0L0 7L7 7L7 0ZM1 1L1 6L6 6L6 1ZM2 2L2 5L5 5L5 2ZM46 0L46 7L53 7L53 0ZM47 1L47 6L52 6L52 1ZM48 2L48 5L51 5L51 2ZM0 46L0 53L7 53L7 46ZM1 47L1 52L6 52L6 47ZM2 48L2 51L5 51L5 48Z" fill="#000000"/></g></g></svg>