<svg xmlns="http://www.w3.org/2000/svg" version="1.1" width="300" height="300" viewBox="0 0 300 300"><rect x="0" y="0" width="300" height="300" fill="#ffffff"/><g transform="scale(5.66)"><g transform="translate(0,0)"><path fill-rule="evenodd" d="M10 0L10 1L8 1L8 2L10 2L10 4L11 4L11 3L12 3L12 2L13 2L13 5L14 5L14 3L15 3L15 2L16 2L16 3L17 3L17 4L19 4L19 5L20 5L20 8L21 8L21 9L18 9L18 8L17 8L17 6L18 6L18 7L19 7L19 6L18 6L18 5L17 5L17 6L16 6L16 8L17 8L17 9L18 9L18 10L20 10L20 11L19 11L19 12L17 12L17 13L19 13L19 14L18 14L18 15L16 15L16 16L15 16L15 13L16 13L16 11L15 11L15 10L16 10L16 9L15 9L15 10L14 10L14 9L13 9L13 8L14 8L14 7L15 7L15 6L14 6L14 7L13 7L13 6L12 6L12 5L8 5L8 7L9 7L9 8L6 8L6 9L5 9L5 8L0 8L0 11L1 11L1 13L2 13L2 14L1 14L1 16L0 16L0 20L1 20L1 21L2 21L2 23L1 23L1 22L0 22L0 23L1 23L1 24L0 24L0 25L1 25L1 26L0 26L0 29L1 29L1 26L2 26L2 28L3 28L3 29L2 29L2 30L3 30L3 31L0 31L0 33L1 33L1 34L0 34L0 36L2 36L2 35L3 35L3 36L4 36L4 35L8 35L8 36L6 36L6 37L8 37L8 36L9 36L9 37L10 37L10 38L9 38L9 39L10 39L10 40L6 40L6 39L7 39L7 38L6 38L6 39L5 39L5 40L4 40L4 39L2 39L2 40L1 40L1 39L0 39L0 43L1 43L1 44L3 44L3 45L4 45L4 44L3 44L3 43L7 43L7 44L6 44L6 45L7 45L7 44L8 44L8 47L11 47L11 49L10 49L10 48L8 48L8 53L10 53L10 52L11 52L11 53L12 53L12 52L11 52L11 51L10 51L10 52L9 52L9 50L12 50L12 49L13 49L13 50L14 50L14 51L13 51L13 53L14 53L14 51L16 51L16 52L15 52L15 53L21 53L21 52L17 52L17 51L20 51L20 50L19 50L19 49L20 49L20 47L21 47L21 48L22 48L22 49L21 49L21 51L23 51L23 50L25 50L25 52L23 52L23 53L26 53L26 51L27 51L27 50L26 50L26 49L29 49L29 50L28 50L28 51L29 51L29 50L30 50L30 51L31 51L31 50L32 50L32 52L31 52L31 53L32 53L32 52L33 52L33 53L34 53L34 52L35 52L35 53L37 53L37 52L35 52L35 50L38 50L38 49L39 49L39 51L38 51L38 53L39 53L39 51L41 51L41 53L43 53L43 52L42 52L42 51L44 51L44 52L45 52L45 51L49 51L49 52L50 52L50 53L51 53L51 52L52 52L52 51L53 51L53 50L52 50L52 48L53 48L53 47L51 47L51 48L50 48L50 46L53 46L53 44L52 44L52 43L51 43L51 42L53 42L53 40L51 40L51 42L50 42L50 43L49 43L49 44L47 44L47 43L46 43L46 42L45 42L45 41L47 41L47 42L49 42L49 41L47 41L47 39L46 39L46 38L47 38L47 37L48 37L48 38L50 38L50 39L49 39L49 40L50 40L50 39L51 39L51 38L52 38L52 37L51 37L51 36L49 36L49 35L50 35L50 34L51 34L51 32L52 32L52 34L53 34L53 31L51 31L51 32L49 32L49 31L50 31L50 30L53 30L53 28L51 28L51 29L50 29L50 30L49 30L49 28L50 28L50 27L49 27L49 26L50 26L50 25L49 25L49 24L50 24L50 22L53 22L53 19L51 19L51 16L52 16L52 15L51 15L51 16L50 16L50 15L48 15L48 14L47 14L47 15L45 15L45 17L47 17L47 18L48 18L48 20L46 20L46 18L45 18L45 19L44 19L44 20L41 20L41 21L40 21L40 24L39 24L39 25L40 25L40 24L41 24L41 23L42 23L42 22L43 22L43 24L42 24L42 25L41 25L41 26L40 26L40 27L39 27L39 26L37 26L37 27L36 27L36 26L35 26L35 27L36 27L36 28L35 28L35 31L34 31L34 30L33 30L33 29L34 29L34 28L33 28L33 29L32 29L32 28L30 28L30 26L31 26L31 25L32 25L32 24L33 24L33 25L34 25L34 24L35 24L35 25L38 25L38 21L37 21L37 20L38 20L38 19L36 19L36 20L35 20L35 21L36 21L36 22L34 22L34 21L33 21L33 22L34 22L34 24L33 24L33 23L32 23L32 21L30 21L30 20L33 20L33 19L35 19L35 18L32 18L32 15L30 15L30 14L31 14L31 13L32 13L32 12L31 12L31 9L32 9L32 11L33 11L33 9L34 9L34 8L35 8L35 9L36 9L36 10L38 10L38 11L37 11L37 12L36 12L36 11L35 11L35 15L37 15L37 16L33 16L33 17L37 17L37 18L38 18L38 17L37 17L37 16L39 16L39 15L37 15L37 14L38 14L38 13L39 13L39 14L40 14L40 13L39 13L39 12L40 12L40 10L38 10L38 7L39 7L39 6L38 6L38 7L37 7L37 5L38 5L38 4L39 4L39 2L40 2L40 3L41 3L41 5L42 5L42 8L41 8L41 6L40 6L40 8L39 8L39 9L40 9L40 8L41 8L41 11L44 11L44 12L42 12L42 13L41 13L41 15L42 15L42 16L43 16L43 17L41 17L41 18L42 18L42 19L43 19L43 18L44 18L44 15L43 15L43 14L44 14L44 12L45 12L45 13L47 13L47 12L48 12L48 13L49 13L49 14L50 14L50 13L49 13L49 12L50 12L50 10L53 10L53 9L52 9L52 8L51 8L51 9L50 9L50 8L49 8L49 9L48 9L48 8L47 8L47 9L48 9L48 10L49 10L49 12L48 12L48 11L47 11L47 12L46 12L46 11L44 11L44 10L43 10L43 9L46 9L46 8L43 8L43 3L44 3L44 4L45 4L45 3L44 3L44 1L43 1L43 0L41 0L41 1L42 1L42 2L43 2L43 3L41 3L41 2L40 2L40 1L39 1L39 2L38 2L38 0L37 0L37 1L36 1L36 2L34 2L34 1L31 1L31 0L29 0L29 1L30 1L30 2L28 2L28 4L27 4L27 3L26 3L26 1L28 1L28 0L26 0L26 1L25 1L25 0L24 0L24 1L25 1L25 3L26 3L26 4L24 4L24 3L23 3L23 4L24 4L24 7L23 7L23 5L20 5L20 4L19 4L19 2L20 2L20 1L19 1L19 0L16 0L16 1L15 1L15 2L14 2L14 1L12 1L12 2L11 2L11 0ZM22 0L22 1L23 1L23 0ZM17 1L17 2L19 2L19 1ZM21 2L21 3L22 3L22 2ZM31 2L31 3L32 3L32 4L33 4L33 5L34 5L34 6L33 6L33 7L34 7L34 6L35 6L35 8L37 8L37 7L36 7L36 6L35 6L35 4L33 4L33 2ZM37 2L37 4L36 4L36 5L37 5L37 4L38 4L38 2ZM8 3L8 4L9 4L9 3ZM29 3L29 4L30 4L30 3ZM25 5L25 8L28 8L28 5ZM29 5L29 9L28 9L28 10L27 10L27 9L26 9L26 10L25 10L25 11L26 11L26 12L25 12L25 13L23 13L23 11L24 11L24 8L23 8L23 7L22 7L22 6L21 6L21 8L22 8L22 10L21 10L21 13L20 13L20 12L19 12L19 13L20 13L20 14L19 14L19 15L20 15L20 17L19 17L19 18L18 18L18 20L19 20L19 21L15 21L15 20L16 20L16 19L14 19L14 18L16 18L16 17L18 17L18 16L16 16L16 17L13 17L13 16L14 16L14 15L13 15L13 16L10 16L10 15L8 15L8 13L9 13L9 14L11 14L11 13L12 13L12 14L13 14L13 12L12 12L12 11L11 11L11 10L10 10L10 12L8 12L8 13L6 13L6 14L4 14L4 13L3 13L3 14L4 14L4 15L5 15L5 17L4 17L4 16L3 16L3 15L2 15L2 16L1 16L1 20L3 20L3 23L2 23L2 24L1 24L1 25L2 25L2 26L4 26L4 25L3 25L3 23L5 23L5 24L7 24L7 23L5 23L5 22L8 22L8 23L9 23L9 25L12 25L12 26L9 26L9 27L11 27L11 28L9 28L9 31L8 31L8 29L6 29L6 30L4 30L4 29L3 29L3 30L4 30L4 32L5 32L5 33L6 33L6 34L7 34L7 33L6 33L6 32L9 32L9 33L8 33L8 34L9 34L9 36L10 36L10 37L11 37L11 40L12 40L12 41L14 41L14 43L16 43L16 45L14 45L14 44L13 44L13 42L12 42L12 44L9 44L9 45L10 45L10 46L12 46L12 45L14 45L14 46L13 46L13 48L14 48L14 46L16 46L16 47L15 47L15 48L16 48L16 49L15 49L15 50L16 50L16 49L18 49L18 48L16 48L16 47L18 47L18 45L17 45L17 44L19 44L19 45L20 45L20 46L21 46L21 47L22 47L22 46L21 46L21 45L23 45L23 47L24 47L24 45L23 45L23 44L26 44L26 42L27 42L27 43L28 43L28 44L29 44L29 43L31 43L31 42L29 42L29 43L28 43L28 42L27 42L27 40L29 40L29 41L31 41L31 40L32 40L32 46L35 46L35 47L36 47L36 48L39 48L39 49L40 49L40 50L41 50L41 48L42 48L42 49L43 49L43 50L44 50L44 51L45 51L45 49L44 49L44 44L42 44L42 45L43 45L43 48L42 48L42 46L40 46L40 45L41 45L41 43L43 43L43 42L41 42L41 36L40 36L40 35L39 35L39 33L40 33L40 34L41 34L41 33L43 33L43 34L42 34L42 35L43 35L43 38L42 38L42 39L43 39L43 38L44 38L44 39L45 39L45 40L42 40L42 41L45 41L45 40L46 40L46 39L45 39L45 36L46 36L46 37L47 37L47 36L48 36L48 37L49 37L49 36L48 36L48 35L49 35L49 34L50 34L50 33L49 33L49 32L48 32L48 31L49 31L49 30L48 30L48 31L47 31L47 30L46 30L46 29L44 29L44 30L43 30L43 31L42 31L42 30L41 30L41 29L43 29L43 28L44 28L44 27L43 27L43 28L42 28L42 26L41 26L41 27L40 27L40 28L38 28L38 27L37 27L37 28L38 28L38 30L39 30L39 29L40 29L40 30L41 30L41 31L40 31L40 32L38 32L38 31L37 31L37 30L36 30L36 31L35 31L35 32L32 32L32 29L31 29L31 30L28 30L28 29L27 29L27 30L26 30L26 29L24 29L24 26L23 26L23 24L24 24L24 23L26 23L26 24L27 24L27 23L30 23L30 24L29 24L29 26L30 26L30 25L31 25L31 24L32 24L32 23L30 23L30 22L29 22L29 21L26 21L26 20L29 20L29 19L30 19L30 18L28 18L28 17L30 17L30 15L29 15L29 12L28 12L28 11L29 11L29 9L31 9L31 8L32 8L32 9L33 9L33 8L32 8L32 6L31 6L31 5ZM9 6L9 7L10 7L10 6ZM11 6L11 7L12 7L12 6ZM26 6L26 7L27 7L27 6ZM30 6L30 7L31 7L31 6ZM44 6L44 7L45 7L45 6ZM9 8L9 9L10 9L10 8ZM1 9L1 11L2 11L2 9ZM3 9L3 10L5 10L5 9ZM6 9L6 10L7 10L7 9ZM49 9L49 10L50 10L50 9ZM13 10L13 11L14 11L14 13L15 13L15 11L14 11L14 10ZM3 11L3 12L4 12L4 11ZM6 11L6 12L7 12L7 11ZM51 11L51 14L53 14L53 13L52 13L52 11ZM10 12L10 13L11 13L11 12ZM26 12L26 13L25 13L25 14L26 14L26 15L24 15L24 14L22 14L22 15L21 15L21 14L20 14L20 15L21 15L21 16L22 16L22 17L21 17L21 18L22 18L22 17L23 17L23 15L24 15L24 18L26 18L26 15L27 15L27 14L28 14L28 12ZM30 12L30 13L31 13L31 12ZM33 12L33 13L34 13L34 12ZM6 14L6 15L7 15L7 16L6 16L6 17L5 17L5 18L4 18L4 17L3 17L3 18L2 18L2 19L3 19L3 20L4 20L4 22L5 22L5 20L4 20L4 19L5 19L5 18L6 18L6 19L7 19L7 20L6 20L6 21L8 21L8 20L9 20L9 21L11 21L11 22L10 22L10 24L12 24L12 23L13 23L13 24L14 24L14 23L13 23L13 22L14 22L14 20L12 20L12 19L13 19L13 17L11 17L11 20L10 20L10 19L9 19L9 18L10 18L10 17L9 17L9 16L8 16L8 15L7 15L7 14ZM33 14L33 15L34 15L34 14ZM47 15L47 16L48 16L48 15ZM27 16L27 17L28 17L28 16ZM49 16L49 17L48 17L48 18L49 18L49 19L50 19L50 21L48 21L48 22L47 22L47 21L45 21L45 20L44 20L44 23L45 23L45 22L47 22L47 23L46 23L46 24L47 24L47 23L48 23L48 22L50 22L50 21L51 21L51 19L50 19L50 18L49 18L49 17L50 17L50 16ZM6 17L6 18L9 18L9 17ZM52 17L52 18L53 18L53 17ZM19 18L19 19L20 19L20 18ZM39 18L39 19L40 19L40 18ZM21 19L21 21L22 21L22 22L20 22L20 21L19 21L19 24L20 24L20 23L22 23L22 22L23 22L23 23L24 23L24 22L23 22L23 21L25 21L25 20L26 20L26 19L23 19L23 21L22 21L22 19ZM11 20L11 21L12 21L12 22L13 22L13 21L12 21L12 20ZM41 21L41 22L42 22L42 21ZM15 22L15 24L17 24L17 25L18 25L18 26L20 26L20 27L17 27L17 30L18 30L18 31L16 31L16 32L15 32L15 30L14 30L14 27L15 27L15 28L16 28L16 27L15 27L15 26L16 26L16 25L15 25L15 26L14 26L14 25L13 25L13 26L12 26L12 31L14 31L14 32L13 32L13 33L16 33L16 34L15 34L15 35L16 35L16 36L15 36L15 37L19 37L19 39L20 39L20 40L21 40L21 41L18 41L18 40L17 40L17 39L18 39L18 38L17 38L17 39L16 39L16 40L17 40L17 41L18 41L18 42L20 42L20 43L19 43L19 44L20 44L20 45L21 45L21 43L23 43L23 42L21 42L21 41L22 41L22 40L21 40L21 39L22 39L22 37L21 37L21 36L20 36L20 37L19 37L19 36L17 36L17 34L19 34L19 35L20 35L20 34L19 34L19 33L20 33L20 32L19 32L19 30L20 30L20 31L21 31L21 32L22 32L22 33L21 33L21 35L23 35L23 36L24 36L24 35L23 35L23 34L22 34L22 33L23 33L23 32L24 32L24 31L25 31L25 33L26 33L26 35L28 35L28 33L29 33L29 35L32 35L32 36L31 36L31 37L29 37L29 36L27 36L27 39L24 39L24 40L23 40L23 41L25 41L25 42L24 42L24 43L25 43L25 42L26 42L26 40L27 40L27 39L28 39L28 37L29 37L29 38L31 38L31 37L32 37L32 40L33 40L33 41L35 41L35 42L33 42L33 43L35 43L35 44L36 44L36 45L35 45L35 46L36 46L36 47L37 47L37 46L38 46L38 47L39 47L39 48L41 48L41 47L39 47L39 46L38 46L38 45L39 45L39 43L41 43L41 42L40 42L40 41L39 41L39 43L38 43L38 41L37 41L37 38L38 38L38 37L39 37L39 36L38 36L38 32L35 32L35 34L31 34L31 33L32 33L32 32L31 32L31 31L30 31L30 32L31 32L31 33L29 33L29 32L28 32L28 33L26 33L26 31L25 31L25 30L24 30L24 31L23 31L23 29L22 29L22 26L21 26L21 25L22 25L22 24L21 24L21 25L18 25L18 24L17 24L17 23L18 23L18 22ZM26 22L26 23L27 23L27 22ZM51 23L51 26L52 26L52 25L53 25L53 23ZM43 24L43 26L44 26L44 24ZM5 25L5 28L8 28L8 25ZM25 25L25 28L28 28L28 25ZM45 25L45 28L48 28L48 25ZM6 26L6 27L7 27L7 26ZM13 26L13 27L14 27L14 26ZM26 26L26 27L27 27L27 26ZM32 26L32 27L34 27L34 26ZM46 26L46 27L47 27L47 26ZM20 28L20 30L21 30L21 31L22 31L22 29L21 29L21 28ZM10 29L10 30L11 30L11 29ZM6 30L6 31L7 31L7 30ZM27 30L27 31L28 31L28 30ZM9 31L9 32L10 32L10 33L9 33L9 34L11 34L11 33L12 33L12 32L10 32L10 31ZM44 31L44 33L46 33L46 34L47 34L47 35L48 35L48 34L49 34L49 33L48 33L48 32L45 32L45 31ZM16 32L16 33L18 33L18 32ZM2 33L2 34L1 34L1 35L2 35L2 34L3 34L3 35L4 35L4 34L3 34L3 33ZM47 33L47 34L48 34L48 33ZM13 34L13 35L11 35L11 36L13 36L13 37L12 37L12 40L14 40L14 39L13 39L13 37L14 37L14 36L13 36L13 35L14 35L14 34ZM35 34L35 36L34 36L34 35L33 35L33 36L32 36L32 37L33 37L33 39L35 39L35 40L36 40L36 38L37 38L37 37L36 37L36 38L35 38L35 36L36 36L36 35L37 35L37 34ZM43 34L43 35L44 35L44 36L45 36L45 34ZM25 36L25 37L23 37L23 38L26 38L26 36ZM0 37L0 38L2 38L2 37ZM4 37L4 38L5 38L5 37ZM20 37L20 39L21 39L21 37ZM50 37L50 38L51 38L51 37ZM39 39L39 40L40 40L40 39ZM2 40L2 41L1 41L1 42L2 42L2 43L3 43L3 42L7 42L7 43L8 43L8 42L10 42L10 41L8 41L8 42L7 42L7 41L6 41L6 40L5 40L5 41L3 41L3 40ZM15 41L15 42L16 42L16 41ZM36 41L36 42L35 42L35 43L36 43L36 44L37 44L37 45L36 45L36 46L37 46L37 45L38 45L38 44L37 44L37 43L36 43L36 42L37 42L37 41ZM45 43L45 44L46 44L46 43ZM50 43L50 44L49 44L49 46L50 46L50 45L51 45L51 43ZM30 44L30 45L31 45L31 44ZM33 44L33 45L34 45L34 44ZM25 45L25 48L28 48L28 45ZM45 45L45 48L48 48L48 45ZM26 46L26 47L27 47L27 46ZM30 46L30 49L31 49L31 46ZM46 46L46 47L47 47L47 46ZM32 47L32 50L35 50L35 49L34 49L34 47ZM23 48L23 49L22 49L22 50L23 50L23 49L24 49L24 48ZM49 48L49 49L50 49L50 48ZM46 49L46 50L48 50L48 49ZM50 50L50 52L51 52L51 51L52 51L52 50ZM33 51L33 52L34 52L34 51ZM46 52L46 53L48 53L48 52ZM0 0L0 7L7 7L7 0ZM1 1L1 6L6 6L6 1ZM2 2L2 5L5 5L5 2ZM46 0L46 7L53 7L53 0ZM47 1L47 6L52 6L52 1ZM48 2L48 5L51 5L51 2ZM0 46L0 53L7 53L7 46ZM1 47L1 52L6 52L6 47ZM2 48L2 51L5 51L5 48Z" fill="#000000"/></g></g></svg>