<svg xmlns="http://www.w3.org/2000/svg" version="1.1" width="300" height="300" viewBox="0 0 300 300"><rect x="0" y="0" width="300" height="300" fill="#ffffff"/><g transform="scale(5.66)"><g transform="translate(0,0)"><path fill-rule="evenodd" d="M8 0L8 4L9 4L9 5L8 5L8 7L9 7L9 6L10 6L10 8L11 8L11 9L12 9L12 10L11 10L11 11L10 11L10 12L12 12L12 13L9 13L9 14L10 14L10 18L8 18L8 17L9 17L9 15L8 15L8 14L6 14L6 15L7 15L7 16L6 16L6 17L5 17L5 13L8 13L8 12L9 12L9 11L8 11L8 12L6 12L6 11L7 11L7 10L10 10L10 9L7 9L7 8L4 8L4 9L7 9L7 10L6 10L6 11L5 11L5 12L3 12L3 11L2 11L2 12L3 12L3 13L2 13L2 14L1 14L1 13L0 13L0 14L1 14L1 15L0 15L0 19L1 19L1 21L0 21L0 22L1 22L1 23L0 23L0 24L1 24L1 25L2 25L2 27L3 27L3 26L4 26L4 29L9 29L9 28L11 28L11 29L10 29L10 30L11 30L11 32L8 32L8 34L5 34L5 33L7 33L7 32L6 32L6 31L8 31L8 30L6 30L6 31L3 31L3 32L4 32L4 33L2 33L2 30L3 30L3 28L2 28L2 30L1 30L1 27L0 27L0 31L1 31L1 34L0 34L0 39L1 39L1 41L2 41L2 42L0 42L0 43L1 43L1 44L3 44L3 45L4 45L4 44L3 44L3 43L7 43L7 42L6 42L6 41L7 41L7 40L8 40L8 43L9 43L9 44L8 44L8 46L9 46L9 47L8 47L8 49L9 49L9 51L8 51L8 53L10 53L10 51L11 51L11 50L12 50L12 52L13 52L13 53L14 53L14 51L16 51L16 50L17 50L17 51L20 51L20 50L21 50L21 51L22 51L22 52L21 52L21 53L22 53L22 52L23 52L23 51L24 51L24 53L25 53L25 52L26 52L26 51L27 51L27 53L28 53L28 52L29 52L29 53L31 53L31 52L32 52L32 53L34 53L34 49L35 49L35 53L40 53L40 51L41 51L41 52L44 52L44 53L47 53L47 50L49 50L49 51L48 51L48 52L49 52L49 51L50 51L50 50L49 50L49 49L50 49L50 45L51 45L51 46L52 46L52 48L51 48L51 49L53 49L53 38L52 38L52 36L53 36L53 32L52 32L52 31L53 31L53 30L52 30L52 29L53 29L53 26L52 26L52 29L51 29L51 28L50 28L50 27L51 27L51 25L52 25L52 24L53 24L53 20L52 20L52 19L53 19L53 17L51 17L51 18L49 18L49 20L48 20L48 19L46 19L46 20L44 20L44 18L46 18L46 17L50 17L50 15L49 15L49 13L50 13L50 14L51 14L51 15L53 15L53 13L51 13L51 12L53 12L53 8L49 8L49 9L48 9L48 8L47 8L47 9L48 9L48 10L49 10L49 11L47 11L47 10L46 10L46 9L44 9L44 10L46 10L46 11L45 11L45 12L44 12L44 11L42 11L42 12L41 12L41 10L43 10L43 8L42 8L42 7L43 7L43 3L44 3L44 4L45 4L45 3L44 3L44 1L43 1L43 0L40 0L40 2L38 2L38 1L39 1L39 0L38 0L38 1L36 1L36 2L35 2L35 3L36 3L36 2L37 2L37 3L40 3L40 5L39 5L39 4L38 4L38 5L37 5L37 4L35 4L35 5L34 5L34 3L33 3L33 1L34 1L34 0L33 0L33 1L31 1L31 0L29 0L29 3L28 3L28 0L27 0L27 1L26 1L26 0L24 0L24 1L26 1L26 2L23 2L23 3L22 3L22 8L24 8L24 9L26 9L26 10L25 10L25 11L26 11L26 10L27 10L27 9L29 9L29 10L28 10L28 11L29 11L29 10L30 10L30 11L31 11L31 9L32 9L32 10L34 10L34 11L33 11L33 12L32 12L32 13L29 13L29 14L28 14L28 13L27 13L27 14L26 14L26 15L25 15L25 14L23 14L23 13L25 13L25 12L23 12L23 11L24 11L24 10L22 10L22 11L21 11L21 10L20 10L20 11L19 11L19 9L21 9L21 6L20 6L20 5L21 5L21 4L20 4L20 5L19 5L19 6L18 6L18 5L16 5L16 3L15 3L15 4L14 4L14 2L13 2L13 1L16 1L16 2L17 2L17 1L20 1L20 2L21 2L21 1L23 1L23 0L13 0L13 1L12 1L12 2L11 2L11 1L10 1L10 2L9 2L9 0ZM41 1L41 2L40 2L40 3L41 3L41 4L42 4L42 3L43 3L43 2L42 2L42 1ZM12 2L12 3L9 3L9 4L10 4L10 6L11 6L11 8L12 8L12 9L13 9L13 10L12 10L12 12L13 12L13 13L14 13L14 14L15 14L15 13L14 13L14 11L16 11L16 10L18 10L18 9L19 9L19 8L20 8L20 6L19 6L19 8L18 8L18 9L17 9L17 7L18 7L18 6L17 6L17 7L16 7L16 5L15 5L15 7L14 7L14 6L13 6L13 5L14 5L14 4L13 4L13 5L12 5L12 3L13 3L13 2ZM26 2L26 3L24 3L24 4L26 4L26 3L27 3L27 2ZM31 2L31 3L32 3L32 4L31 4L31 7L30 7L30 5L29 5L29 7L30 7L30 8L29 8L29 9L31 9L31 7L32 7L32 6L33 6L33 7L34 7L34 8L33 8L33 9L34 9L34 10L36 10L36 9L35 9L35 7L36 7L36 6L35 6L35 7L34 7L34 6L33 6L33 5L32 5L32 4L33 4L33 3L32 3L32 2ZM41 2L41 3L42 3L42 2ZM11 5L11 6L12 6L12 8L13 8L13 9L14 9L14 10L15 10L15 9L16 9L16 7L15 7L15 8L14 8L14 7L13 7L13 6L12 6L12 5ZM23 5L23 7L24 7L24 5ZM25 5L25 8L28 8L28 5ZM40 5L40 6L39 6L39 7L38 7L38 6L37 6L37 11L39 11L39 12L40 12L40 13L39 13L39 14L38 14L38 12L37 12L37 14L36 14L36 15L38 15L38 16L37 16L37 17L34 17L34 15L33 15L33 17L32 17L32 14L31 14L31 15L29 15L29 16L28 16L28 14L27 14L27 15L26 15L26 16L25 16L25 15L23 15L23 14L21 14L21 15L20 15L20 13L21 13L21 12L20 12L20 13L17 13L17 12L16 12L16 14L18 14L18 15L15 15L15 16L14 16L14 15L13 15L13 14L12 14L12 15L11 15L11 17L12 17L12 18L11 18L11 19L12 19L12 20L13 20L13 21L11 21L11 22L9 22L9 21L10 21L10 20L9 20L9 19L5 19L5 17L4 17L4 18L3 18L3 19L2 19L2 20L3 20L3 19L5 19L5 20L4 20L4 21L5 21L5 22L7 22L7 23L6 23L6 24L10 24L10 23L11 23L11 24L13 24L13 23L14 23L14 24L16 24L16 25L15 25L15 27L14 27L14 28L13 28L13 26L14 26L14 25L13 25L13 26L12 26L12 25L11 25L11 26L10 26L10 25L9 25L9 26L10 26L10 27L11 27L11 28L12 28L12 31L13 31L13 32L11 32L11 33L9 33L9 34L11 34L11 33L18 33L18 32L19 32L19 33L20 33L20 32L21 32L21 31L22 31L22 32L23 32L23 33L21 33L21 34L20 34L20 35L19 35L19 36L20 36L20 37L19 37L19 38L20 38L20 39L19 39L19 40L18 40L18 41L17 41L17 39L18 39L18 37L16 37L16 38L13 38L13 37L14 37L14 34L12 34L12 35L11 35L11 36L9 36L9 35L8 35L8 36L9 36L9 37L10 37L10 38L9 38L9 39L8 39L8 37L6 37L6 36L7 36L7 35L6 35L6 36L3 36L3 34L2 34L2 36L1 36L1 37L2 37L2 36L3 36L3 38L2 38L2 41L3 41L3 42L2 42L2 43L3 43L3 42L4 42L4 41L6 41L6 40L7 40L7 39L8 39L8 40L9 40L9 43L10 43L10 44L11 44L11 43L12 43L12 45L11 45L11 46L10 46L10 47L9 47L9 49L14 49L14 50L15 50L15 49L18 49L18 48L19 48L19 49L20 49L20 48L21 48L21 47L22 47L22 48L23 48L23 49L21 49L21 50L22 50L22 51L23 51L23 49L24 49L24 47L23 47L23 46L24 46L24 44L22 44L22 43L23 43L23 42L25 42L25 44L26 44L26 42L25 42L25 41L26 41L26 40L27 40L27 41L28 41L28 39L29 39L29 37L30 37L30 36L31 36L31 38L32 38L32 36L31 36L31 34L32 34L32 35L33 35L33 34L32 34L32 32L33 32L33 31L34 31L34 36L33 36L33 37L34 37L34 38L36 38L36 40L39 40L39 41L43 41L43 40L41 40L41 39L42 39L42 38L41 38L41 35L40 35L40 37L39 37L39 34L40 34L40 33L43 33L43 34L44 34L44 33L43 33L43 32L44 32L44 31L45 31L45 36L44 36L44 35L42 35L42 36L44 36L44 37L49 37L49 39L48 39L48 40L47 40L47 41L46 41L46 38L45 38L45 40L44 40L44 41L46 41L46 42L45 42L45 44L46 44L46 42L47 42L47 41L48 41L48 40L49 40L49 39L50 39L50 40L51 40L51 41L50 41L50 42L49 42L49 43L48 43L48 44L49 44L49 43L50 43L50 44L51 44L51 45L52 45L52 44L51 44L51 43L52 43L52 38L51 38L51 39L50 39L50 37L51 37L51 36L52 36L52 34L51 34L51 33L52 33L52 32L51 32L51 31L52 31L52 30L51 30L51 29L50 29L50 31L49 31L49 30L47 30L47 29L46 29L46 30L45 30L45 29L44 29L44 27L43 27L43 26L41 26L41 25L42 25L42 23L43 23L43 22L44 22L44 20L42 20L42 19L41 19L41 20L40 20L40 19L38 19L38 17L39 17L39 16L40 16L40 18L41 18L41 17L43 17L43 18L44 18L44 17L46 17L46 16L45 16L45 15L46 15L46 14L47 14L47 16L49 16L49 15L48 15L48 14L47 14L47 13L46 13L46 12L47 12L47 11L46 11L46 12L45 12L45 13L46 13L46 14L44 14L44 12L43 12L43 14L42 14L42 16L40 16L40 14L41 14L41 12L40 12L40 9L42 9L42 8L40 8L40 9L39 9L39 10L38 10L38 8L39 8L39 7L40 7L40 6L41 6L41 7L42 7L42 5ZM26 6L26 7L27 7L27 6ZM44 6L44 8L45 8L45 6ZM0 8L0 12L1 12L1 10L2 10L2 8ZM49 9L49 10L50 10L50 12L51 12L51 11L52 11L52 9L51 9L51 10L50 10L50 9ZM34 11L34 12L33 12L33 13L34 13L34 14L35 14L35 13L36 13L36 11ZM22 12L22 13L23 13L23 12ZM34 12L34 13L35 13L35 12ZM3 14L3 15L1 15L1 18L2 18L2 17L3 17L3 16L4 16L4 14ZM19 15L19 16L18 16L18 17L13 17L13 16L12 16L12 17L13 17L13 18L14 18L14 21L13 21L13 22L15 22L15 23L17 23L17 25L18 25L18 26L16 26L16 27L15 27L15 28L14 28L14 29L13 29L13 31L14 31L14 32L16 32L16 29L17 29L17 31L18 31L18 30L19 30L19 28L20 28L20 31L21 31L21 30L23 30L23 31L24 31L24 32L26 32L26 33L25 33L25 34L23 34L23 35L22 35L22 34L21 34L21 35L22 35L22 36L21 36L21 37L20 37L20 38L21 38L21 39L20 39L20 40L19 40L19 41L18 41L18 42L19 42L19 41L21 41L21 42L20 42L20 43L18 43L18 44L17 44L17 42L16 42L16 43L15 43L15 44L14 44L14 45L12 45L12 47L13 47L13 46L14 46L14 49L15 49L15 46L16 46L16 44L17 44L17 47L16 47L16 48L17 48L17 47L18 47L18 46L19 46L19 48L20 48L20 47L21 47L21 45L22 45L22 46L23 46L23 45L22 45L22 44L21 44L21 43L22 43L22 41L21 41L21 39L22 39L22 40L23 40L23 41L25 41L25 40L26 40L26 39L25 39L25 37L24 37L24 35L25 35L25 34L26 34L26 35L27 35L27 36L26 36L26 38L27 38L27 36L29 36L29 35L27 35L27 34L26 34L26 33L28 33L28 34L31 34L31 33L28 33L28 32L30 32L30 31L29 31L29 30L32 30L32 31L31 31L31 32L32 32L32 31L33 31L33 30L34 30L34 31L35 31L35 36L34 36L34 37L36 37L36 38L37 38L37 36L38 36L38 34L39 34L39 33L40 33L40 32L41 32L41 31L42 31L42 30L43 30L43 28L42 28L42 29L41 29L41 31L40 31L40 28L41 28L41 26L40 26L40 28L39 28L39 25L37 25L37 24L35 24L35 25L37 25L37 26L36 26L36 29L37 29L37 28L38 28L38 30L36 30L36 31L35 31L35 30L34 30L34 29L35 29L35 28L34 28L34 27L35 27L35 26L34 26L34 25L33 25L33 24L32 24L32 25L31 25L31 23L30 23L30 22L32 22L32 21L33 21L33 23L34 23L34 21L38 21L38 22L39 22L39 23L40 23L40 22L43 22L43 21L40 21L40 20L38 20L38 19L37 19L37 18L35 18L35 19L34 19L34 17L33 17L33 18L31 18L31 16L30 16L30 17L28 17L28 16L26 16L26 18L24 18L24 17L23 17L23 16L22 16L22 15L21 15L21 16L20 16L20 15ZM43 15L43 17L44 17L44 15ZM7 16L7 17L6 17L6 18L7 18L7 17L8 17L8 16ZM19 16L19 17L20 17L20 16ZM21 17L21 18L20 18L20 19L19 19L19 20L21 20L21 21L23 21L23 22L25 22L25 23L23 23L23 24L22 24L22 23L20 23L20 24L21 24L21 25L19 25L19 24L18 24L18 25L19 25L19 27L17 27L17 28L19 28L19 27L20 27L20 26L21 26L21 25L22 25L22 26L24 26L24 25L23 25L23 24L25 24L25 23L26 23L26 24L28 24L28 22L29 22L29 21L28 21L28 18L26 18L26 20L27 20L27 23L26 23L26 22L25 22L25 21L23 21L23 20L25 20L25 19L23 19L23 17ZM16 18L16 19L15 19L15 21L16 21L16 22L17 22L17 23L18 23L18 22L20 22L20 21L16 21L16 20L18 20L18 18ZM21 18L21 20L22 20L22 18ZM29 18L29 20L30 20L30 19L31 19L31 21L32 21L32 19L31 19L31 18ZM51 18L51 19L50 19L50 20L49 20L49 21L48 21L48 22L49 22L49 21L50 21L50 24L51 24L51 23L52 23L52 20L51 20L51 19L52 19L52 18ZM35 19L35 20L37 20L37 19ZM6 20L6 21L9 21L9 20ZM33 20L33 21L34 21L34 20ZM46 20L46 22L45 22L45 24L46 24L46 23L47 23L47 24L49 24L49 23L47 23L47 20ZM50 20L50 21L51 21L51 20ZM39 21L39 22L40 22L40 21ZM2 22L2 23L3 23L3 24L2 24L2 25L4 25L4 22ZM8 22L8 23L9 23L9 22ZM11 22L11 23L12 23L12 22ZM35 22L35 23L36 23L36 22ZM43 24L43 25L44 25L44 24ZM5 25L5 28L8 28L8 25ZM25 25L25 28L28 28L28 25ZM29 25L29 29L28 29L28 30L29 30L29 29L32 29L32 30L33 30L33 29L34 29L34 28L33 28L33 25L32 25L32 26L31 26L31 28L30 28L30 25ZM45 25L45 28L48 28L48 25ZM49 25L49 26L50 26L50 25ZM6 26L6 27L7 27L7 26ZM11 26L11 27L12 27L12 26ZM26 26L26 27L27 27L27 26ZM46 26L46 27L47 27L47 26ZM23 27L23 28L21 28L21 29L23 29L23 30L24 30L24 31L25 31L25 29L24 29L24 27ZM15 28L15 29L14 29L14 30L15 30L15 29L16 29L16 28ZM32 28L32 29L33 29L33 28ZM26 29L26 31L27 31L27 32L28 32L28 31L27 31L27 29ZM46 30L46 36L47 36L47 35L49 35L49 37L50 37L50 35L51 35L51 34L50 34L50 35L49 35L49 33L47 33L47 30ZM37 31L37 34L38 34L38 31ZM39 31L39 32L40 32L40 31ZM48 31L48 32L49 32L49 31ZM16 34L16 35L15 35L15 36L17 36L17 34ZM36 35L36 36L37 36L37 35ZM11 36L11 37L12 37L12 36ZM22 36L22 37L21 37L21 38L23 38L23 36ZM5 37L5 39L4 39L4 38L3 38L3 41L4 41L4 40L5 40L5 39L7 39L7 38L6 38L6 37ZM38 37L38 38L39 38L39 37ZM10 38L10 39L9 39L9 40L11 40L11 42L10 42L10 43L11 43L11 42L12 42L12 40L13 40L13 41L14 41L14 42L13 42L13 43L14 43L14 42L15 42L15 41L16 41L16 39L17 39L17 38L16 38L16 39L15 39L15 40L14 40L14 39L13 39L13 38L12 38L12 39L11 39L11 38ZM24 39L24 40L25 40L25 39ZM32 39L32 40L31 40L31 42L32 42L32 43L30 43L30 41L29 41L29 42L27 42L27 43L29 43L29 45L30 45L30 44L31 44L31 45L32 45L32 44L33 44L33 45L34 45L34 46L35 46L35 47L33 47L33 48L36 48L36 47L37 47L37 51L38 51L38 52L39 52L39 51L40 51L40 50L41 50L41 49L43 49L43 50L42 50L42 51L43 51L43 50L44 50L44 51L45 51L45 52L46 52L46 50L47 50L47 49L46 49L46 50L44 50L44 46L40 46L40 45L43 45L43 44L41 44L41 43L44 43L44 42L41 42L41 43L40 43L40 45L39 45L39 44L38 44L38 45L36 45L36 43L37 43L37 42L38 42L38 43L39 43L39 42L38 42L38 41L36 41L36 43L35 43L35 41L34 41L34 40L35 40L35 39L34 39L34 40L33 40L33 39ZM32 40L32 42L33 42L33 43L34 43L34 44L35 44L35 43L34 43L34 41L33 41L33 40ZM50 42L50 43L51 43L51 42ZM6 44L6 45L7 45L7 44ZM20 44L20 45L19 45L19 46L20 46L20 45L21 45L21 44ZM14 45L14 46L15 46L15 45ZM25 45L25 48L28 48L28 45ZM35 45L35 46L36 46L36 45ZM38 45L38 46L39 46L39 49L38 49L38 50L40 50L40 46L39 46L39 45ZM45 45L45 48L48 48L48 45ZM26 46L26 47L27 47L27 46ZM31 46L31 47L30 47L30 48L29 48L29 49L28 49L28 50L29 50L29 52L30 52L30 51L32 51L32 46ZM46 46L46 47L47 47L47 46ZM25 49L25 50L26 50L26 49ZM29 49L29 50L31 50L31 49ZM51 51L51 53L52 53L52 52L53 52L53 51ZM15 52L15 53L19 53L19 52ZM0 0L0 7L7 7L7 0ZM1 1L1 6L6 6L6 1ZM2 2L2 5L5 5L5 2ZM46 0L46 7L53 7L53 0ZM47 1L47 6L52 6L52 1ZM48 2L48 5L51 5L51 2ZM0 46L0 53L7 53L7 46ZM1 47L1 52L6 52L6 47ZM2 48L2 51L5 51L5 48Z" fill="#000000"/></g></g></svg>