<?xml version="1.0" encoding="UTF-8" standalone="no"?>
<!DOCTYPE svg PUBLIC "-//W3C//DTD SVG 1.1//EN" "http://www.w3.org/Graphics/SVG/1.1/DTD/svg11.dtd">
<svg xmlns="http://www.w3.org/2000/svg" version="1.1" viewBox="0.00 0.00 500.00 486.00">
<path fill="#009039" d="
  M 277.27 366.83
  Q 277.40 367.41 277.99 367.47
  Q 285.04 368.20 291.98 368.66
  C 301.06 369.27 310.33 370.39 319.48 371.60
  Q 332.38 373.31 350.72 377.44
  Q 366.34 380.96 380.76 387.01
  C 387.95 390.02 396.02 394.70 401.41 400.85
  C 407.18 407.45 408.24 416.80 403.00 424.01
  C 398.53 430.15 391.68 434.74 384.90 437.94
  Q 371.93 444.05 356.20 447.99
  Q 336.63 452.89 319.01 455.02
  C 316.40 455.34 313.68 455.55 311.01 455.89
  Q 301.68 457.08 293.85 457.42
  C 289.54 457.61 285.00 458.58 280.56 458.76
  Q 249.79 460.00 222.25 458.96
  C 214.47 458.66 206.67 457.50 198.77 457.05
  Q 194.24 456.79 188.82 456.05
  C 184.43 455.45 180.02 455.22 175.56 454.56
  Q 159.11 452.11 141.59 447.72
  Q 125.20 443.61 111.41 436.42
  C 104.67 432.91 97.72 427.70 94.38 420.87
  Q 92.24 416.49 92.88 411.01
  C 94.67 395.81 118.79 385.95 130.94 382.27
  Q 154.42 375.15 179.73 371.72
  C 191.49 370.13 202.90 369.05 214.58 368.35
  A 1.35 1.34 88.0 0 0 215.85 366.98
  Q 215.83 366.18 215.36 365.35
  Q 174.86 294.14 147.01 225.51
  Q 138.47 204.45 131.32 177.60
  C 129.99 172.61 128.99 167.06 128.29 161.99
  Q 125.34 140.67 130.36 119.94
  C 141.13 75.50 175.69 41.76 220.31 31.36
  C 231.26 28.80 242.94 28.34 253.94 28.91
  C 295.56 31.05 332.53 56.21 351.89 92.79
  Q 359.84 107.80 362.71 123.88
  C 364.57 134.36 365.59 144.78 364.49 155.53
  Q 363.76 162.63 362.13 171.25
  Q 360.72 178.73 358.54 186.59
  Q 352.70 207.76 345.31 226.29
  Q 317.40 296.33 277.51 365.30
  Q 277.09 366.02 277.27 366.83
  Z
  M 335.56 144.49
  A 89.22 89.22 0.0 0 0 246.34 55.27
  A 89.22 89.22 0.0 0 0 157.12 144.49
  A 89.22 89.22 0.0 0 0 246.34 233.71
  A 89.22 89.22 0.0 0 0 335.56 144.49
  Z
  M 387.04 402.37
  C 375.75 395.40 363.37 391.26 350.18 388.01
  Q 334.33 384.10 320.23 382.34
  Q 313.48 381.50 305.92 380.46
  C 301.18 379.81 296.44 380.10 291.68 379.41
  Q 281.37 377.92 271.60 378.22
  Q 269.89 378.27 269.05 379.79
  Q 259.28 397.47 249.44 412.36
  Q 248.42 413.91 246.75 414.64
  Q 246.27 414.85 245.78 414.66
  Q 244.33 414.11 243.54 412.88
  Q 233.87 397.86 223.62 379.87
  Q 222.59 378.06 220.66 378.16
  C 218.16 378.28 215.60 378.17 213.15 378.52
  Q 206.93 379.42 200.78 379.78
  Q 194.44 380.16 188.61 380.92
  Q 175.60 382.62 164.72 384.55
  Q 147.95 387.52 129.96 393.74
  Q 119.75 397.26 109.98 403.91
  C 107.64 405.50 105.53 407.66 104.31 410.22
  C 98.59 422.22 126.90 432.24 135.12 434.66
  Q 163.66 443.07 189.85 445.73
  C 197.97 446.55 206.04 447.55 214.31 447.94
  Q 251.23 449.67 286.18 447.81
  Q 305.24 446.79 324.42 443.70
  Q 342.45 440.80 359.22 436.14
  C 370.36 433.05 381.86 429.03 390.65 421.95
  C 393.26 419.84 396.80 415.40 395.61 411.86
  C 394.26 407.80 390.71 404.64 387.04 402.37
  Z"
/>
<path fill="#009039" d="
  M 225.64 123.48
  Q 226.43 123.31 226.44 122.49
  Q 226.47 107.92 226.40 91.27
  C 226.38 88.05 226.50 84.53 230.78 84.36
  Q 246.57 83.72 261.79 84.47
  C 266.46 84.70 266.44 88.66 266.45 92.14
  Q 266.47 106.33 266.40 122.41
  A 1.24 1.24 0.0 0 0 267.64 123.66
  C 279.01 123.71 290.67 123.24 301.96 124.10
  A 3.79 3.78 -88.5 0 1 305.45 127.79
  Q 305.73 140.52 305.76 154.03
  Q 305.77 157.26 305.33 160.23
  C 304.80 163.75 300.39 163.51 297.71 163.52
  Q 283.26 163.58 270.79 163.55
  Q 269.05 163.55 267.42 163.75
  A 1.37 1.37 0.0 0 0 266.22 165.10
  Q 266.15 181.70 266.30 197.26
  Q 266.35 202.80 261.32 202.92
  Q 245.80 203.29 231.03 202.87
  Q 228.16 202.79 227.13 200.73
  Q 226.40 199.29 226.42 197.33
  Q 226.58 180.99 226.47 165.83
  Q 226.45 163.55 224.17 163.58
  Q 208.43 163.84 191.90 163.46
  Q 186.97 163.35 186.87 158.07
  Q 186.57 143.49 186.88 128.98
  C 186.95 126.11 188.43 123.87 191.59 123.84
  Q 212.62 123.66 223.60 123.71
  Q 224.58 123.72 225.64 123.48
  Z"
/>
</svg>
